<svg width="37" height="36" viewBox="0 0 37 36" fill="none" xmlns="http://www.w3.org/2000/svg">
<path d="M0 18C0 8.05887 8.28273 0 18.5 0C28.7173 0 37 8.05887 37 18C37 27.9411 28.7173 36 18.5 36C8.28273 36 0 27.9411 0 18Z" fill="#F68634"/>
<path d="M20.5012 22.0802L23.266 24.6771C23.8323 25.208 23.8323 26.0701 23.266 26.6015C22.7002 27.1328 21.7831 27.1328 21.218 26.6015L18.4997 24.0496L15.7838 26.6015C15.5006 26.8669 15.1295 26.9997 14.7584 26.9997C14.388 26.9997 14.0175 26.8669 13.7343 26.6015C13.1685 26.0701 13.1685 25.2085 13.7337 24.6771L16.4987 22.0802C15.492 21.8648 14.5211 21.4902 13.6269 20.9633C12.9501 20.5625 12.7468 19.7229 13.1732 19.0867C13.5985 18.4497 14.4927 18.258 15.1707 18.6587C17.1953 19.8549 19.8035 19.8552 21.8293 18.6587C22.5072 18.258 23.4012 18.4497 23.8273 19.0867C24.2537 19.7223 24.0498 20.5625 23.3731 20.9633C22.4788 21.4908 21.5079 21.8648 20.5012 22.0802Z" fill="white"/>
<path fill-rule="evenodd" clip-rule="evenodd" d="M13.542 13.6452C13.542 16.206 15.7602 18.289 18.4876 18.289C21.2156 18.289 23.4332 16.206 23.4332 13.6452C23.4332 11.0836 21.2156 9 18.4876 9C15.7602 9 13.542 11.0836 13.542 13.6452ZM20.5353 13.6452C20.5353 12.5846 19.6168 11.7222 18.4875 11.7222C17.3592 11.7222 16.4398 12.5846 16.4398 13.6452C16.4398 14.7049 17.3592 15.5678 18.4875 15.5678C19.6168 15.5678 20.5353 14.7049 20.5353 13.6452Z" fill="white"/>
</svg>
