<svg width="38" height="37" viewBox="0 0 38 37" fill="none" xmlns="http://www.w3.org/2000/svg">
<path fill-rule="evenodd" clip-rule="evenodd" d="M13.7436 0.925018H25.1021C35.4684 0.925018 37.9229 3.31316 37.9229 13.3993V24.4508C37.9229 34.5369 35.4684 36.925 25.1021 36.925H13.7436C3.37733 36.925 0.922852 34.5369 0.922852 24.4508V13.3993C0.922852 3.31316 3.37733 0.925018 13.7436 0.925018Z" fill="#4680C2"/>
<path fill-rule="evenodd" clip-rule="evenodd" d="M31.2125 13.323C31.3953 12.7641 31.2125 12.3576 30.403 12.3576H27.7136C27.0347 12.3576 26.7213 12.7133 26.5385 13.0944C26.5385 13.0944 25.1546 16.3463 23.2224 18.455C22.5957 19.0647 22.3085 19.268 21.969 19.268C21.7862 19.268 21.5512 19.0647 21.5512 18.5058V13.2976C21.5512 12.6371 21.3424 12.3322 20.7679 12.3322H16.5378C16.1201 12.3322 15.8589 12.6371 15.8589 12.942C15.8589 13.5771 16.8251 13.7295 16.9295 15.5079V19.3696C16.9295 20.208 16.7728 20.3604 16.4334 20.3604C15.5195 20.3604 13.3 17.0831 11.9683 13.3484C11.7072 12.6117 11.4461 12.3322 10.7672 12.3322H8.0516C7.26825 12.3322 7.1377 12.6879 7.1377 13.069C7.1377 13.7549 8.0516 17.2101 11.3939 21.7832C13.6133 24.9081 16.7728 26.5849 19.619 26.5849C21.3424 26.5849 21.5512 26.2038 21.5512 25.5686V23.2059C21.5512 22.4437 21.7079 22.3167 22.2563 22.3167C22.6479 22.3167 23.3529 22.5199 24.9457 24.0189C26.7735 25.7973 27.0869 26.6103 28.1052 26.6103H30.7947C31.5781 26.6103 31.9436 26.2292 31.7347 25.4924C31.4997 24.7556 30.6119 23.6886 29.463 22.4183C28.8364 21.7069 27.8963 20.9194 27.6091 20.5383C27.2174 20.0302 27.3219 19.8269 27.6091 19.3696C27.583 19.3696 30.873 14.8474 31.2125 13.323Z" fill="white"/>
</svg>
