<svg width="23" height="25" viewBox="0 0 23 25" fill="none" xmlns="http://www.w3.org/2000/svg">
<path d="M21.7304 0.5H1.26962C0.932938 0.500142 0.610084 0.639767 0.372014 0.888188C0.133943 1.13661 0.000136061 1.4735 0 1.82482V23.1752C0.000136061 23.5265 0.133943 23.8634 0.372014 24.1118C0.610084 24.3602 0.932938 24.4999 1.26962 24.5H11.5V15.0714H8.75078V11.6429H11.5V8.91071C11.5 5.81107 13.5602 4.12357 16.214 4.12357C17.4836 4.12357 18.8492 4.22321 19.1665 4.26714V7.50446H17.0523C15.6087 7.50446 15.3335 8.21696 15.3335 9.26696V11.6429H18.7732L18.324 15.0714H15.3335V24.5H21.7304C22.0671 24.4999 22.3899 24.3602 22.628 24.1118C22.8661 23.8634 22.9999 23.5265 23 23.1752V1.82482C22.9999 1.4735 22.8661 1.13661 22.628 0.888188C22.3899 0.639767 22.0671 0.500142 21.7304 0.5Z" fill="#004885"/>
</svg>
