<svg xmlns="http://www.w3.org/2000/svg" xmlns:xlink="http://www.w3.org/1999/xlink" viewBox="0 0 33.56 19.58"><defs><style>.cls-1{fill:none;}.cls-2{clip-path:url(#clip-path);}.cls-3{fill:#4eaec4;}.cls-4{fill:#f5c832;}</style><clipPath id="clip-path"><rect class="cls-1" width="33.56" height="19.58"/></clipPath></defs><title>Ресурс 2</title><g id="Слой_2" data-name="Слой 2"><g id="_4" data-name="4"><g id="KAZAKHSTAN"><g class="cls-2"><rect class="cls-3" width="33.56" height="19.58"/><g class="cls-2"><path class="cls-4" d="M2.2,13.81a.61.61,0,0,1,.63-.6.51.51,0,0,1,.57.52,1,1,0,0,1-.1.43l-.86,1.77a.47.47,0,0,0,0,.23.32.32,0,0,0,.32.29.31.31,0,0,0,.31-.3c0-.19-.1-.27-.21-.27s-.18,0-.18.14,0,.09.08.09.07-.15.07-.15a.1.1,0,0,1,.08.13.26.26,0,0,1,.1.07.16.16,0,0,1-.1.05c0,.09,0,.13-.09.15a.15.15,0,0,0,0-.09.23.23,0,0,1-.3-.22.32.32,0,0,1,.4-.33.2.2,0,0,1-.1-.16l.1,0a.34.34,0,0,1-.07-.2s.09.06.15,0a.39.39,0,0,1,.33-.52.62.62,0,0,0-.17.41c0,.45.13.53.13.84a.48.48,0,0,1-.2.38h0a.31.31,0,0,1,.18.13,1.33,1.33,0,0,1-.66,0,.5.5,0,0,1-.35-.23.7.7,0,0,1,0-.56L3.11,14a.55.55,0,0,0,.06-.26.32.32,0,0,0-.33-.31.29.29,0,0,0-.3.25.13.13,0,0,0,.12.14c.16,0,.15-.14.12-.23s.17.13.15.21a.28.28,0,0,1,.16.1.2.2,0,0,1-.16.09c0,.13-.06.18-.15.21s.05-.2-.12-.2a.32.32,0,0,1-.27-.1c0,.1,0,.52,0,.52,0,.15.21.15.35.11a.33.33,0,0,1-.4.25.19.19,0,0,1,.12.19.47.47,0,0,1-.2.35Z"/><path class="cls-4" d="M2.28,13.81a.61.61,0,0,0-.63-.6.51.51,0,0,0-.57.52.86.86,0,0,0,.11.43L2,15.93a.47.47,0,0,1,0,.23.31.31,0,0,1-.62,0c0-.19.1-.27.2-.27s.18,0,.18.14,0,.09-.07.09S1.69,16,1.69,16a.1.1,0,0,0-.08.13l-.1.07a.19.19,0,0,0,.1.05c0,.09,0,.13.09.15a.1.1,0,0,1,0-.09A.22.22,0,0,0,2,16.05a.32.32,0,0,0-.4-.33.18.18,0,0,0,.1-.16.27.27,0,0,1-.1,0,.28.28,0,0,0,.07-.2s-.09.06-.15,0c.1-.2,0-.46-.33-.52a.58.58,0,0,1,.17.41c0,.45-.13.53-.13.84a.48.48,0,0,0,.2.38h0a.35.35,0,0,0-.18.13,1.33,1.33,0,0,0,.66,0,.48.48,0,0,0,.35-.23.7.7,0,0,0,0-.56L1.37,14a.71.71,0,0,1-.06-.26.33.33,0,0,1,.34-.31.28.28,0,0,1,.29.25.13.13,0,0,1-.12.14c-.16,0-.15-.14-.12-.23s-.16.13-.14.21a.28.28,0,0,0-.17.1.21.21,0,0,0,.17.09c0,.13.05.18.14.21s-.05-.2.12-.2a.34.34,0,0,0,.28-.1c0,.1,0,.52,0,.52,0,.15-.21.15-.35.11.05.17.16.27.41.25A.19.19,0,0,0,2,15a.47.47,0,0,0,.2.35Z"/><path class="cls-4" d="M2.24,18s.19.16.25.08-.31-.75-.31-1,.24-.46.54-.51a2.31,2.31,0,0,1,.53,0,.24.24,0,0,1-.21.11.43.43,0,0,1,.24.39c0,.31-.13.44-.13.79a1.05,1.05,0,0,0,.16.45.38.38,0,0,1-.35-.5.12.12,0,0,0-.12,0,.21.21,0,0,1,.06-.19s-.06,0-.12,0a.3.3,0,0,1,.13-.19.3.3,0,0,1-.41-.29A.23.23,0,0,1,2.69,17a.23.23,0,0,1,.11,0,.2.2,0,0,0,0-.13c.08,0,.12.06.09.15a.15.15,0,0,1,.12.05.1.1,0,0,1-.12.06c0,.08,0,.13-.07.17s0-.17-.06-.17a.08.08,0,0,0-.09.09.15.15,0,0,0,.17.14c.12,0,.22-.09.22-.28s-.14-.27-.33-.27a.25.25,0,0,0-.3.26c0,.23.34.76.34,1a.26.26,0,0,1-.29.24.51.51,0,0,1-.32-.18Z"/><path class="cls-4" d="M2.24,18s-.18.16-.25.08.32-.75.32-1-.25-.46-.54-.51a2.37,2.37,0,0,0-.54,0,.26.26,0,0,0,.21.11.44.44,0,0,0-.23.39c0,.31.13.44.13.79a1.05,1.05,0,0,1-.16.45.38.38,0,0,0,.34-.5.11.11,0,0,1,.12,0,.23.23,0,0,0,0-.19s.06,0,.11,0,0-.12-.13-.19A.3.3,0,0,0,2,17.27.22.22,0,0,0,1.79,17a.17.17,0,0,0-.1,0,.15.15,0,0,1,0-.13c-.07,0-.12.06-.09.15a.17.17,0,0,0-.12.05.11.11,0,0,0,.12.06c0,.08,0,.13.07.17s0-.17.07-.17a.08.08,0,0,1,.09.09.16.16,0,0,1-.18.14c-.12,0-.22-.09-.22-.28s.15-.27.34-.27a.25.25,0,0,1,.3.26c0,.23-.34.76-.34,1a.26.26,0,0,0,.28.24.51.51,0,0,0,.33-.18Z"/><path class="cls-4" d="M2.2,7a.61.61,0,0,1,.63-.59.51.51,0,0,1,.57.51.94.94,0,0,1-.1.43L2.44,9.07a.5.5,0,0,0,0,.23.32.32,0,0,0,.32.29A.31.31,0,0,0,3,9.3C3,9.1,2.93,9,2.82,9s-.18.05-.18.14,0,.09.08.09.07-.15.07-.15a.11.11,0,0,1,.08.14A.17.17,0,0,1,3,9.3a.24.24,0,0,1-.1.06c0,.08,0,.12-.09.14a.15.15,0,0,0,0-.09.22.22,0,0,1-.3-.22.32.32,0,0,1,.4-.33.18.18,0,0,1-.1-.16l.1,0a.31.31,0,0,1-.07-.2s.09.06.15,0A.39.39,0,0,1,3.31,8a.64.64,0,0,0-.17.41c0,.46.13.53.13.85a.48.48,0,0,1-.2.37h0a.27.27,0,0,1,.18.12,1.13,1.13,0,0,1-.66,0,.47.47,0,0,1-.35-.23.67.67,0,0,1,0-.55l.87-1.84a.58.58,0,0,0,.06-.26.32.32,0,0,0-.33-.31.29.29,0,0,0-.3.24c0,.09,0,.14.12.14s.15-.14.12-.22.17.13.15.21a.26.26,0,0,1,.16.09.2.2,0,0,1-.16.09c0,.13-.06.19-.15.22s.05-.21-.12-.21a.29.29,0,0,1-.27-.1c0,.11,0,.52,0,.52,0,.16.21.15.35.11-.05.18-.16.27-.4.25a.2.2,0,0,1,.12.19.5.5,0,0,1-.2.36Z"/><path class="cls-4" d="M2.28,7a.61.61,0,0,0-.63-.59.51.51,0,0,0-.57.51.84.84,0,0,0,.11.43L2,9.07a.5.5,0,0,1,0,.23.31.31,0,0,1-.62,0c0-.2.1-.28.2-.28s.18.05.18.14,0,.09-.07.09-.08-.15-.08-.15a.11.11,0,0,0-.08.14.21.21,0,0,0-.1.06.33.33,0,0,0,.1.06c0,.08,0,.12.09.14a.1.1,0,0,1,0-.09A.22.22,0,0,0,2,9.19a.32.32,0,0,0-.4-.33.17.17,0,0,0,.1-.16.27.27,0,0,1-.1,0,.27.27,0,0,0,.07-.2s-.09.06-.15,0c.1-.19,0-.45-.33-.52a.59.59,0,0,1,.17.41c0,.46-.13.53-.13.85a.48.48,0,0,0,.2.37h0a.29.29,0,0,0-.18.12,1.13,1.13,0,0,0,.66,0,.46.46,0,0,0,.35-.23.67.67,0,0,0,0-.55L1.37,7.16a.76.76,0,0,1-.06-.26.33.33,0,0,1,.34-.31.28.28,0,0,1,.29.24c0,.09-.05.14-.12.14s-.15-.14-.12-.22A.2.2,0,0,0,1.56,7a.26.26,0,0,0-.17.09.21.21,0,0,0,.17.09c0,.13.05.19.14.22s-.05-.21.12-.21a.31.31,0,0,0,.28-.1c0,.11,0,.52,0,.52,0,.16-.21.15-.35.11.05.18.16.27.41.25A.2.2,0,0,0,2,8.12a.5.5,0,0,0,.2.36Z"/><path class="cls-4" d="M2.28,5.77a.61.61,0,0,1-.63.6.51.51,0,0,1-.57-.52.83.83,0,0,1,.11-.42L2,3.66a.52.52,0,0,0,0-.24.32.32,0,0,0-.31-.29.32.32,0,0,0-.31.3c0,.2.1.28.2.28s.18,0,.18-.14,0-.09-.07-.09-.08.15-.08.15a.11.11,0,0,1-.08-.14.21.21,0,0,1-.1-.06.21.21,0,0,1,.1-.06c0-.09,0-.13.09-.15a.12.12,0,0,0,0,.1A.22.22,0,0,1,2,3.54a.31.31,0,0,1-.4.32.18.18,0,0,1,.1.16.27.27,0,0,0-.1,0,.29.29,0,0,1,.07.21s-.09-.07-.15,0a.37.37,0,0,1-.33.51.59.59,0,0,0,.17-.41c0-.45-.13-.53-.13-.84a.47.47,0,0,1,.2-.37h0a.34.34,0,0,1-.18-.12,1.23,1.23,0,0,1,.66,0,.51.51,0,0,1,.35.23.7.7,0,0,1,0,.56L1.37,5.57a.76.76,0,0,0-.06.26.33.33,0,0,0,.34.31.28.28,0,0,0,.29-.24c0-.09-.05-.15-.12-.15s-.15.14-.12.23a.2.2,0,0,1-.14-.21.32.32,0,0,1-.17-.09.21.21,0,0,1,.17-.09.16.16,0,0,1,.14-.22c0,.09-.05.2.12.2a.29.29,0,0,1,.28.11c0-.11,0-.53,0-.53,0-.15-.21-.15-.35-.1a.33.33,0,0,1,.41-.26A.19.19,0,0,1,2,4.61a.5.5,0,0,1,.2-.36Z"/><path class="cls-4" d="M2.2,5.77a.61.61,0,0,0,.63.6.51.51,0,0,0,.57-.52.92.92,0,0,0-.1-.42L2.44,3.66a.52.52,0,0,1,0-.24.32.32,0,0,1,.63,0c0,.2-.1.28-.21.28s-.18,0-.18-.14,0-.09.08-.09.07.15.07.15a.11.11,0,0,0,.08-.14A.17.17,0,0,0,3,3.43a.17.17,0,0,0-.1-.06c0-.09,0-.13-.09-.15a.2.2,0,0,1,0,.1.22.22,0,0,0-.3.22.31.31,0,0,0,.4.32A.2.2,0,0,0,2.8,4l.1,0a.34.34,0,0,0-.07.21s.09-.07.15,0a.38.38,0,0,0,.33.51.64.64,0,0,1-.17-.41c0-.45.13-.53.13-.84a.47.47,0,0,0-.2-.37h0a.3.3,0,0,0,.18-.12,1.23,1.23,0,0,0-.66,0,.54.54,0,0,0-.35.23.7.7,0,0,0,0,.56l.87,1.84a.58.58,0,0,1,.06.26.32.32,0,0,1-.33.31.29.29,0,0,1-.3-.24c0-.09,0-.15.12-.15s.15.14.12.23.17-.13.15-.21a.33.33,0,0,0,.16-.09.2.2,0,0,0-.16-.09.17.17,0,0,0-.15-.22c0,.09.05.2-.12.2s-.22,0-.27.11c0-.11,0-.53,0-.53,0-.15.21-.15.35-.1a.33.33,0,0,0-.4-.26.18.18,0,0,0,.12-.18.5.5,0,0,0-.2-.36Z"/><path class="cls-4" d="M2.28,12.63a.62.62,0,0,1-.63.6.51.51,0,0,1-.57-.52.8.8,0,0,1,.11-.42L2,10.52a.57.57,0,0,0,0-.24.33.33,0,0,0-.31-.3.33.33,0,0,0-.31.3c0,.2.1.29.2.29s.18-.05.18-.15,0-.09-.07-.09-.08.15-.08.15a.11.11,0,0,1-.08-.14.12.12,0,0,1-.1-.06.21.21,0,0,1,.1-.06c0-.08,0-.12.09-.14a.1.1,0,0,0,0,.09.22.22,0,0,1,.29.22.32.32,0,0,1-.4.33.18.18,0,0,1,.1.16.27.27,0,0,0-.1,0,.28.28,0,0,1,.07.2S1.56,11,1.5,11a.38.38,0,0,1-.33.52.59.59,0,0,0,.17-.41c0-.45-.13-.53-.13-.85a.48.48,0,0,1,.2-.37h0a.35.35,0,0,1-.18-.13,1.13,1.13,0,0,1,.66,0,.48.48,0,0,1,.35.23.7.7,0,0,1,0,.56l-.87,1.84a.71.71,0,0,0-.06.25.33.33,0,0,0,.34.32.28.28,0,0,0,.29-.25c0-.09-.05-.14-.12-.14s-.15.14-.12.23-.16-.13-.14-.22a.26.26,0,0,1-.17-.09.2.2,0,0,1,.17-.08c0-.14.05-.2.14-.23s-.05.21.12.21a.31.31,0,0,1,.28.1c0-.1,0-.52,0-.52,0-.16-.21-.15-.35-.11.05-.18.16-.27.41-.25A.19.19,0,0,1,2,11.46a.52.52,0,0,1,.2-.36Z"/><path class="cls-4" d="M2.2,12.63a.62.62,0,0,0,.63.6.51.51,0,0,0,.57-.52.9.9,0,0,0-.1-.42l-.86-1.77a.57.57,0,0,1,0-.24.34.34,0,0,1,.32-.3.33.33,0,0,1,.31.3c0,.2-.1.29-.21.29s-.18-.05-.18-.15,0-.09.08-.09.07.15.07.15a.11.11,0,0,0,.08-.14.11.11,0,0,0,.1-.06.17.17,0,0,0-.1-.06c0-.08,0-.12-.09-.14a.15.15,0,0,1,0,.09.23.23,0,0,0-.3.22.32.32,0,0,0,.4.33.2.2,0,0,0-.1.16l.1,0a.34.34,0,0,0-.07.2S2.92,11,3,11a.39.39,0,0,0,.33.52.64.64,0,0,1-.17-.41c0-.45.13-.53.13-.85a.48.48,0,0,0-.2-.37h0a.31.31,0,0,0,.18-.13,1.13,1.13,0,0,0-.66,0,.5.5,0,0,0-.35.23.7.7,0,0,0,0,.56l.87,1.84a.54.54,0,0,1,.06.25.32.32,0,0,1-.33.32.29.29,0,0,1-.3-.25c0-.09,0-.14.12-.14s.15.14.12.23.17-.13.15-.22a.26.26,0,0,0,.16-.09.19.19,0,0,0-.16-.08.19.19,0,0,0-.15-.23c0,.1.05.21-.12.21a.29.29,0,0,0-.27.1c0-.1,0-.52,0-.52,0-.16.21-.15.35-.11-.05-.18-.16-.27-.4-.25a.19.19,0,0,0,.12-.19.52.52,0,0,0-.2-.36Z"/><path class="cls-4" d="M2.24,1.54s.19-.15.25-.08-.31.76-.31,1,.24.46.54.51a2.56,2.56,0,0,0,.53,0A.21.21,0,0,0,3,2.82a.43.43,0,0,0,.24-.39c0-.31-.13-.44-.13-.79a1,1,0,0,1,.16-.44A.37.37,0,0,0,3,1.69a.14.14,0,0,1-.12,0,.2.2,0,0,0,.06.18s-.06,0-.12,0A.28.28,0,0,0,2.91,2a.3.3,0,0,0-.41.3.21.21,0,0,0,.19.23.23.23,0,0,0,.11,0,.19.19,0,0,1,0,.13c.08,0,.12-.06.09-.15a.15.15,0,0,0,.12,0,.13.13,0,0,0-.12-.06c0-.08,0-.13-.07-.16s0,.16-.06.16a.08.08,0,0,1-.09-.09.14.14,0,0,1,.17-.13c.12,0,.22.08.22.28s-.14.26-.33.26a.25.25,0,0,1-.3-.25c0-.24.34-.78.34-1a.26.26,0,0,0-.29-.25.51.51,0,0,0-.32.18Z"/><path class="cls-4" d="M2.24,1.54S2.06,1.39,2,1.46s.32.76.32,1-.25.46-.54.51a2.63,2.63,0,0,1-.54,0c.07-.09.11-.12.21-.12a.44.44,0,0,1-.23-.39c0-.31.13-.44.13-.79a1,1,0,0,0-.16-.44.37.37,0,0,1,.34.49.13.13,0,0,0,.12,0,.22.22,0,0,1,0,.18s.06,0,.11,0A.25.25,0,0,1,1.57,2a.3.3,0,0,1,.41.3.21.21,0,0,1-.19.23.17.17,0,0,1-.1,0,.15.15,0,0,0,0,.13c-.07,0-.12-.06-.09-.15a.17.17,0,0,1-.12,0,.14.14,0,0,1,.12-.06c0-.08,0-.13.07-.16s0,.16.07.16a.08.08,0,0,0,.09-.09.15.15,0,0,0-.18-.13c-.12,0-.22.08-.22.28s.15.26.34.26a.25.25,0,0,0,.3-.25c0-.24-.34-.78-.34-1A.26.26,0,0,1,2,1.23a.51.51,0,0,1,.33.18Z"/><path class="cls-3" d="M1.88,12.6s-.08,0-.12,0-.09,0-.09.07.07,0,.12,0,.09,0,.09-.07Z"/><path class="cls-3" d="M1.71,12.7h0l0,0a.11.11,0,0,1,.1-.09l.1,0h0l0,0s0,.08-.09.09Z"/><path class="cls-4" d="M17.52,13.3a4.64,4.64,0,0,1-4.64-4.2s-.11,0-.12.05.06.91,0,.87-.55-1.38-.63-1.24.53,1.65.49,1.7-.88-1.43-.94-1.32c-.23.45.93,1.89.92,1.95s-.88-.78-1-.68.92,1.09,1,1.16-.59-.35-.62-.16.37.46.6.59.31.09.37.2-.43-.05-.42,0,.54.17.61.27-.34,0-.32.1.45.15.46.21-.27,0-.26.13.44.08.54.15-.37,0,0,.19a5.2,5.2,0,0,0,1.38.51c.58.12.88,0,.9-.05s-.28,0-.69,0A4,4,0,0,1,14,13.26c-.07,0,.22-.12.16-.2s-.3,0-.39-.1.11-.08.11-.12-.32-.12-.38-.2.14-.07.15-.12-.2-.11-.21-.16.23,0,.11-.11-.45-.15-.52-.27.26,0,.17-.09-.36-.21-.42-.39.22,0,.22-.09-.15,0-.21-.39c0-.11.21,0,.21,0l0-.05a2.34,2.34,0,0,1,.59.53c.33.38.43.75.74,1,.16.13.16-.05.5.16a7.68,7.68,0,0,1,.84.67,7.06,7.06,0,0,1,1,.1c.37.08.44.27.44.27a.93.93,0,0,0,.31-.27c0-.06.08,0,.09,0s0-.09,0-.09Z"/><path class="cls-4" d="M15.44,13.9a2.48,2.48,0,0,1-.45-.05,5.45,5.45,0,0,1-1.38-.51c-.12-.06-.16-.09-.15-.13s0-.05.11-.06h0a.73.73,0,0,0-.25-.05c-.16,0-.3,0-.3-.11h0l0-.05a.2.2,0,0,1,.15,0l.09,0-.14,0c-.14,0-.3-.08-.33-.17s.09-.07.19-.07.14,0,.15,0a.63.63,0,0,0-.22-.07c-.18,0-.38-.06-.4-.2s.15-.07.27-.06H13c0-.06,0-.07-.1-.09l-.23-.1c-.21-.13-.63-.45-.61-.61a.07.07,0,0,1,.08-.06,1.23,1.23,0,0,1,.4.16l.18.08a.63.63,0,0,1-.15-.11c-.5-.43-1-.89-.87-1.07.1,0,.25.11.48.32a1.85,1.85,0,0,0,.47.36,1.26,1.26,0,0,0-.15-.23c-.3-.45-.94-1.38-.76-1.72.07,0,.16.13.39.52s.46.79.54.79a2.62,2.62,0,0,0-.14-.44c-.24-.62-.43-1.14-.35-1.26s.25.29.51.91l.14.3a1.17,1.17,0,0,1,0-.23,3.19,3.19,0,0,1,0-.6.09.09,0,0,1,.09-.08h.05a4.64,4.64,0,0,0,4.63,4.2.08.08,0,0,1,0,.08h0l0,0,0,0h0a1.13,1.13,0,0,1-.35.31.58.58,0,0,0-.45-.28,3.46,3.46,0,0,0-.75-.09H15.8c-.05,0-.08,0-.1,0l-.2-.17a4.57,4.57,0,0,0-.63-.49.53.53,0,0,0-.3-.11h-.06a.17.17,0,0,1-.14,0A1.9,1.9,0,0,1,14,12a5.57,5.57,0,0,0-.34-.5,2.72,2.72,0,0,0-.59-.52V11a.86.86,0,0,1-.15,0h-.05c0,.23.09.28.14.32a.12.12,0,0,1,.06.1c0,.05-.07.05-.09.05h-.13a.6.6,0,0,0,.29.3.37.37,0,0,1,.13.11h0v0s0,0-.05,0h-.1c0,.09.18.16.31.22a.54.54,0,0,1,.17.07s.05,0,0,0,0,0-.08,0l-.07,0,.11.07c.07,0,.11.06.11.09s0,.05-.09.06l-.07,0a.51.51,0,0,0,.22.13c.12,0,.16.06.17.1s0,0-.07.06,0,0,0,0A.25.25,0,0,0,14,13c.07,0,.14,0,.17.05l0,0c0,.05-.07.08-.12.11l-.06.05a4.2,4.2,0,0,0,1.18.46,2,2,0,0,0,.43,0h.28c0,.06-.19.14-.48.14Zm-2.75-1.65c-.06,0-.07,0-.08,0s.21.15.36.18.21,0,.24.07v.05s-.08,0-.19,0l-.15,0c0,.07.18.11.3.14s.16.05.17.08-.06.05-.12.06a.33.33,0,0,0-.13,0c0,.07.15.09.26.1a1,1,0,0,1,.26.06l0,0s0,0-.09,0l-.08,0s0,0,.14.09a4.7,4.7,0,0,0,1.37.51,2.37,2.37,0,0,0,.44,0,.76.76,0,0,0,.44-.09l-.09,0h-.15a2,2,0,0,1-.43,0,3.94,3.94,0,0,1-1.2-.47c0-.06,0-.08.06-.11a.29.29,0,0,0,.1-.08c0-.05-.09-.05-.15-.05s-.19,0-.24-.07l0-.05s0,0,.08-.06l0,0s-.08,0-.14-.07a.54.54,0,0,1-.24-.12V12.6s0,0,.1-.06l.06,0a.23.23,0,0,0-.09-.06c-.07,0-.11-.06-.12-.1s.05-.06.09-.06l.05,0-.18-.08c-.15-.06-.32-.12-.36-.21h0v-.05s.08,0,.12,0h0a.33.33,0,0,0-.12-.11.84.84,0,0,1-.3-.29s0,0,0-.06a.14.14,0,0,1,.09,0H13l.05,0s0-.05-.05-.07a.45.45,0,0,1-.16-.32.08.08,0,0,1,0,0c0-.05.21,0,.21,0v-.05h0a1.81,1.81,0,0,1,.63.53,4,4,0,0,1,.34.5,2,2,0,0,0,.4.52.13.13,0,0,0,.11,0h.06a.63.63,0,0,1,.32.12,4.51,4.51,0,0,1,.64.49l.2.18h.2a3.6,3.6,0,0,1,.76.09c.38.08.46.28.46.28a2.1,2.1,0,0,0,.27-.27.07.07,0,0,1,.06,0h0v0a4.65,4.65,0,0,1-4.65-4.21h0s-.05,0-.05.05a3.09,3.09,0,0,0,0,.59c0,.23,0,.27,0,.28s-.1-.14-.18-.34a4,4,0,0,0-.45-.9A4,4,0,0,0,12.52,10c.15.39.17.45.15.46l0,0c-.1,0-.29-.31-.58-.8a2.45,2.45,0,0,0-.33-.52c-.16.32.47,1.23.78,1.68.13.19.15.23.15.25v0l0,0c-.08,0-.24-.14-.49-.36a1.86,1.86,0,0,0-.42-.34c-.13.18.62.81.86,1l.11.1s0,0,0,.06a.32.32,0,0,1-.21-.07,1.51,1.51,0,0,0-.39-.15,0,0,0,0,0,0,0c0,.13.34.43.59.57l.22.1a.23.23,0,0,1,.16.11c0,.12-.1.06-.19,0Z"/><path class="cls-4" d="M19.29,14.09c-.1,0-.09.05-.09.05a.21.21,0,0,1-.14.22c-.06,0,0,.06,0,.1h-.25a2.57,2.57,0,0,1-1.53.23l-.24.2c-.11.1-.19.12-.21.2s.06.13.16.13a.52.52,0,0,0,.24-.09.13.13,0,0,0,.12.09,1.1,1.1,0,0,0,.27-.06.72.72,0,0,0,.27,0,.52.52,0,0,0,.2-.09.18.18,0,0,0,.15.14.64.64,0,0,0,.28-.14.22.22,0,0,0,.19.08.48.48,0,0,0,.22-.14.38.38,0,0,0,.25,0,.64.64,0,0,0,.24-.15s.11.09.2.05.17-.17.17-.17a.59.59,0,0,0,.43,0c.12-.05.09-.24.09-.24s.71.1.68-.37c0-.05-1.15,0-1.65-.12Z"/><path class="cls-4" d="M18.19,15.27h0a.18.18,0,0,1-.15-.14.28.28,0,0,1-.19.09,1.83,1.83,0,0,1-.28-.05.69.69,0,0,1-.24.06.17.17,0,0,1-.15-.1.32.32,0,0,1-.22.1.25.25,0,0,1-.18-.06.11.11,0,0,1,0-.1.28.28,0,0,1,.12-.12l.1-.09c.12-.09.24-.2.24-.2a3.32,3.32,0,0,0,.43,0,2.26,2.26,0,0,0,1.1-.25l.26,0c0-.06,0-.09,0-.11a.21.21,0,0,0,.13-.2.05.05,0,0,1,0-.05.06.06,0,0,1,.06,0,8.13,8.13,0,0,0,1.15.09c.51,0,.55,0,.55.06a.33.33,0,0,1-.08.25.67.67,0,0,1-.47.15h-.15a.19.19,0,0,1-.08.24.72.72,0,0,1-.45,0s-.05.14-.15.17a.27.27,0,0,1-.22-.06s-.1.13-.22.16a.39.39,0,0,1-.26,0,.37.37,0,0,1-.22.14h0a.24.24,0,0,1-.2-.09.44.44,0,0,1-.27.15ZM18,15.1s.06.13.16.13v0a.65.65,0,0,0,.27-.14s.09.08.18.08a.61.61,0,0,0,.24-.13.63.63,0,0,0,.17,0,.12.12,0,0,0,.08,0,.7.7,0,0,0,.23-.14.59.59,0,0,0,.17.05.35.35,0,0,0,.19-.16s.15,0,.28,0a.35.35,0,0,0,.16,0c.11-.05.08-.23.08-.23s.08,0,.17,0h0a.61.61,0,0,0,.44-.13.29.29,0,0,0,.07-.23l-.51,0a9.38,9.38,0,0,1-1.13-.08h-.05a.26.26,0,0,1-.16.27s0,0,0,0,0,0,0,.05h-.27a2.53,2.53,0,0,1-1.53.23,2.18,2.18,0,0,1-.22.19L16.9,15c-.06,0-.09.06-.11.11a.07.07,0,0,0,0,.05.18.18,0,0,0,.14,0h0a.52.52,0,0,0,.23-.09s0,.08.13.08h0a1,1,0,0,0,.26,0,1.16,1.16,0,0,0,.24,0A.46.46,0,0,0,18,15.1Z"/><path class="cls-4" d="M17.77,13.59a3.8,3.8,0,0,1,.57-.15c.69-.14.93-.1,1-.14a2.76,2.76,0,0,1,1.34-.81c.32-.26.42-.64.75-1S22,11,22,11l0,.09s.18-.13.17,0-.16.34-.15.45.24,0,.22,0-.25.29-.3.36.22,0,.16.08-.37.25-.49.32.08.05.06.1-.32.18-.32.22.08.05.05.09-.33.09-.33.13.05.09,0,.17-.16,0-.2.09.15.16,0,.18a1.3,1.3,0,0,0-.42.18s-.28.08-.41.12-.58.08-.56.12a2.53,2.53,0,0,0,1-.08,5.54,5.54,0,0,0,.88-.22c.5-.16-.13-.17,0-.24s.53,0,.55-.13-.24-.08-.24-.14.53-.06.56-.2-.29,0-.22-.11.49-.12.51-.3-.34,0-.3-.07.16-.07.3-.17.57-.42.55-.56-.72.42-.66.19,1.14-1,1-1.19-.93.81-1,.62,1.25-1.48,1-1.92c-.06-.12-1,1.69-1.13,1.54s.8-1.79.67-2-.2.2-.34.52-.3.67-.34.72,0-.68,0-.91-.12-.05-.12-.05a4.93,4.93,0,0,1-4.06,4.2c-.45.06-.59.28-1.09.56-.16.09-.42.13-.64.26a1.32,1.32,0,0,0-.45.42.25.25,0,0,0,.06.25c.05,0,0-.13.09-.16s.06.06.12,0a.26.26,0,0,0,.13-.06h1.75a.63.63,0,0,0,.32-.12c0-.06-.17,0-.26,0-.36,0-.85,0-1.2,0a.05.05,0,0,1-.05-.06,2,2,0,0,1,.22-.26h-.17a.44.44,0,0,1-.16.06c-.05,0-.07,0-.05,0a8.37,8.37,0,0,1,1.05-.56Z"/><path class="cls-4" d="M16,14.8h0s-.06-.08-.07-.1a.28.28,0,0,1,0-.16,1.3,1.3,0,0,1,.46-.44l.36-.15a2,2,0,0,0,.28-.11,3.83,3.83,0,0,0,.39-.25,1.53,1.53,0,0,1,.71-.31,4.89,4.89,0,0,0,4-4.18.1.1,0,0,1,.16.05,4.16,4.16,0,0,1,0,.6c0,.14,0,.28,0,.3s.14-.34.26-.62l.05-.1c.17-.37.26-.55.34-.55h0l0,0c.09.12-.16.74-.47,1.48a2.73,2.73,0,0,0-.19.49A3.92,3.92,0,0,0,23,9.84c.28-.46.39-.63.44-.63.21.37-.48,1.28-.82,1.73a1.27,1.27,0,0,0-.16.22,1.92,1.92,0,0,0,.37-.28c.2-.18.41-.37.52-.37h0l0,0c.13.15-.29.56-.72,1a1.67,1.67,0,0,0-.23.22c.05,0,.16,0,.27-.09s.38-.21.39-.11-.17.32-.56.59a1.36,1.36,0,0,1-.2.11.23.23,0,0,0-.09.06h.1c.08,0,.16,0,.18,0l0,0c0,.12-.18.18-.32.22s-.17,0-.19.09,0,0,.08,0a.34.34,0,0,1,.14,0c0,.13-.21.17-.38.19l-.18,0,.08,0c.07,0,.17,0,.16.12s-.15.08-.31.1a1,1,0,0,0-.25,0l.08,0c.08,0,.15,0,.15.09s0,.07-.21.13a7.43,7.43,0,0,1-.89.22,4.91,4.91,0,0,1-.85.1c-.11,0-.14,0-.15,0s.1-.07.4-.12l.17,0,.15,0a2.06,2.06,0,0,0,.26-.07,1.35,1.35,0,0,1,.42-.19s0-.05,0-.07-.06-.06,0-.1,0-.05.07-.05l0,0v0a.1.1,0,0,0,.09,0,.08.08,0,0,0,0-.09.13.13,0,0,1,0-.06s.05-.05.14-.07a.33.33,0,0,0,.19-.07s-.05,0-.05-.08,0,0,.16-.12.16-.08.16-.1,0,0,0,0-.05,0-.05,0h0l0,0,.14-.08a.87.87,0,0,0,.34-.22A.11.11,0,0,0,22,12h-.06l-.05,0a.14.14,0,0,1,0-.06l.09-.08a.6.6,0,0,0,.21-.28h-.07c-.09,0-.15,0-.15,0a.51.51,0,0,1,.07-.22,1.13,1.13,0,0,0,.08-.24s-.11,0-.14,0l-.07-.09a1.71,1.71,0,0,0-.5.42,3.52,3.52,0,0,0-.35.5,1.79,1.79,0,0,1-.41.53l-.21.09a2.32,2.32,0,0,0-1.13.72s-.07,0-.17,0a5,5,0,0,0-.81.11,3.8,3.8,0,0,0-.57.15,8.62,8.62,0,0,0-1.05.55.4.4,0,0,0,.19-.05h.18a2.81,2.81,0,0,1-.2.28l0,.06v0c.35,0,.84,0,1.21,0h.06c.08,0,.18,0,.2,0a.48.48,0,0,1-.33.13c-.52,0-1.72,0-1.75,0a.26.26,0,0,1-.13.06h0a.07.07,0,0,1-.07,0,.09.09,0,0,0-.08.07s0,.07,0,.07Zm6.22-5.69h0a4.93,4.93,0,0,1-4.07,4.2,1.41,1.41,0,0,0-.69.31l-.39.24a1.17,1.17,0,0,1-.28.11,2.32,2.32,0,0,0-.36.16,1.26,1.26,0,0,0-.44.41.14.14,0,0,0,0,.13.31.31,0,0,0,.05.09h0s0,0,0-.06,0-.08.06-.1a.08.08,0,0,1,.07,0,.06.06,0,0,0,.05,0,.22.22,0,0,0,.11-.05s1.24,0,1.77,0a.47.47,0,0,0,.3-.1h-.24c-.37,0-.85,0-1.2,0a.08.08,0,0,1-.05,0,.08.08,0,0,1,0-.06,2.2,2.2,0,0,1,.23-.27l-.16,0h0a.45.45,0,0,1-.15.06c-.05,0-.08,0-.08,0v0l0,0a6.27,6.27,0,0,1,1.06-.56,3.08,3.08,0,0,1,.57-.16,5.36,5.36,0,0,1,.82-.12h.15a2.29,2.29,0,0,1,1.14-.74l.2-.08a1.9,1.9,0,0,0,.4-.52,4.2,4.2,0,0,1,.35-.5c.33-.39.53-.43.54-.43l.06.1s.08-.08.13-.08l0,0a.43.43,0,0,1,0,0,.8.8,0,0,1-.09.26.58.58,0,0,0-.06.19h.17l.05,0a.61.61,0,0,1-.23.33S22,12,22,12h.12l0,0a0,0,0,0,1,0,.05c0,.09-.21.18-.35.25l-.14.07s.09.06.07.1-.06.07-.19.13a.6.6,0,0,0-.13.08l0,0,0,0a.32.32,0,0,1-.22.12l-.12,0c0,.07,0,.11,0,.17a.13.13,0,0,1-.12.06h0s0,0,0,0a.15.15,0,0,0,0,.06s.05.07,0,.1,0,0-.05,0a1,1,0,0,0-.4.18l-.28.08-.15,0-.17,0-.36.06a2.88,2.88,0,0,0,.95-.09,5.82,5.82,0,0,0,.88-.22c.18-.06.18-.09.18-.09s-.09,0-.13,0-.1,0-.11-.06h0l0,0a.82.82,0,0,1,.28,0c.1,0,.26,0,.27-.07s-.05-.05-.13-.07-.11,0-.11-.06.07,0,.21-.07.34-.06.36-.13-.07,0-.11,0-.12,0-.13,0v-.06a.45.45,0,0,1,.22-.09c.13,0,.28-.1.29-.19s-.08,0-.16,0-.11,0-.13,0a.13.13,0,0,1,.1-.1,1.36,1.36,0,0,0,.2-.11c.49-.34.55-.49.54-.55s-.22.06-.33.13a.92.92,0,0,1-.29.13h0a.08.08,0,0,1,0-.07,2.12,2.12,0,0,1,.24-.24c.3-.28.84-.78.72-.92s-.33.19-.51.35-.34.3-.4.3h0l0-.05s0-.05.17-.25c.33-.43,1-1.34.85-1.66a5.69,5.69,0,0,0-.41.61c-.35.57-.59.94-.69.94s0-.07.15-.54a4.83,4.83,0,0,0,.48-1.44c-.06,0-.21.3-.3.52l-.05.11c-.13.3-.26.58-.29.62s-.05-.05,0-.32a4,4,0,0,0,0-.59s0-.05-.05-.05Z"/><path class="cls-3" d="M16.56,14.34s-.06,0-.1,0-.08,0-.07.05.06,0,.1,0,.07,0,.07-.05Z"/><path class="cls-3" d="M16.42,14.43h0l0,0s0-.06.08-.07l.08,0h0l0,0s0,.06-.09.07l-.07,0Z"/><path class="cls-4" d="M18.13,5.44a.19.19,0,0,0,.24-.16,7.43,7.43,0,0,0,0-.89A7.19,7.19,0,0,0,18,5.2a.19.19,0,0,0,.17.24Z"/><path class="cls-4" d="M18.67,5.61a.19.19,0,0,0,.27-.12c0-.13.14-.88.14-.88a7.93,7.93,0,0,0-.53.73.19.19,0,0,0,.12.27Z"/><path class="cls-4" d="M19.16,5.88a.19.19,0,0,0,.29-.07A7.83,7.83,0,0,0,19.76,5a6.52,6.52,0,0,0-.65.61.19.19,0,0,0,.05.29Z"/><path class="cls-4" d="M19.6,6.23a.18.18,0,0,0,.29,0,6.41,6.41,0,0,0,.47-.76,7.34,7.34,0,0,0-.76.47.18.18,0,0,0,0,.29Z"/><path class="cls-4" d="M20,6.67a.18.18,0,0,0,.28,0,6.52,6.52,0,0,0,.61-.65,7.83,7.83,0,0,0-.83.31.18.18,0,0,0-.06.29Z"/><path class="cls-4" d="M20.22,7.16a.2.2,0,0,0,.27.12,7.93,7.93,0,0,0,.73-.53s-.74.09-.88.14a.2.2,0,0,0-.12.27Z"/><path class="cls-4" d="M20.39,7.71a.19.19,0,0,0,.24.16,7.43,7.43,0,0,0,.81-.37,7.1,7.1,0,0,0-.89,0,.19.19,0,0,0-.16.25Z"/><path class="cls-4" d="M20.44,8.27a.19.19,0,0,0,.21.2,7.79,7.79,0,0,0,.87-.2,7.48,7.48,0,0,0-.87-.21.19.19,0,0,0-.21.21Z"/><path class="cls-4" d="M20.39,8.83a.18.18,0,0,0,.16.24,7.43,7.43,0,0,0,.89,0s-.66-.34-.81-.38a.19.19,0,0,0-.24.17Z"/><path class="cls-4" d="M20.22,9.37a.19.19,0,0,0,.12.27,7,7,0,0,0,.88.14,7.93,7.93,0,0,0-.73-.53.19.19,0,0,0-.27.12Z"/><path class="cls-4" d="M20,9.87a.19.19,0,0,0,.06.29c.12.07.83.3.83.3a6.52,6.52,0,0,0-.61-.65.18.18,0,0,0-.28.06Z"/><path class="cls-4" d="M19.6,10.3a.19.19,0,0,0,0,.3c.11.1.76.46.76.46a7.34,7.34,0,0,0-.47-.76.19.19,0,0,0-.29,0Z"/><path class="cls-4" d="M19.16,10.66a.19.19,0,0,0-.05.29,7.59,7.59,0,0,0,.65.6,7.83,7.83,0,0,0-.31-.83.18.18,0,0,0-.29-.06Z"/><path class="cls-4" d="M18.67,10.93a.19.19,0,0,0-.12.27,7.57,7.57,0,0,0,.53.72s-.09-.74-.14-.88a.19.19,0,0,0-.27-.11Z"/><path class="cls-4" d="M16,10.66a.19.19,0,0,0-.29.06,6.1,6.1,0,0,0-.31.83A7.59,7.59,0,0,0,16,11a.19.19,0,0,0,0-.29Z"/><path class="cls-4" d="M15.53,10.3a.19.19,0,0,0-.29,0,7.34,7.34,0,0,0-.47.76s.65-.36.76-.46a.19.19,0,0,0,0-.3Z"/><path class="cls-4" d="M15.17,9.87a.19.19,0,0,0-.29-.06,7.59,7.59,0,0,0-.6.65s.71-.23.83-.3a.19.19,0,0,0,.06-.29Z"/><path class="cls-4" d="M14.91,9.37a.2.2,0,0,0-.28-.12,7.57,7.57,0,0,0-.72.53,7,7,0,0,0,.88-.14.19.19,0,0,0,.12-.27Z"/><path class="cls-4" d="M14.74,8.83a.19.19,0,0,0-.25-.17c-.14,0-.8.38-.8.38a7.43,7.43,0,0,0,.89,0,.18.18,0,0,0,.16-.24Z"/><path class="cls-4" d="M14.69,8.27a.19.19,0,0,0-.21-.21,7.48,7.48,0,0,0-.87.21,7.79,7.79,0,0,0,.87.2.19.19,0,0,0,.21-.2Z"/><path class="cls-4" d="M14.74,7.71a.19.19,0,0,0-.16-.25,7.1,7.1,0,0,0-.89,0,8.1,8.1,0,0,0,.8.37.19.19,0,0,0,.25-.16Z"/><path class="cls-4" d="M14.91,7.16a.2.2,0,0,0-.12-.27c-.14,0-.88-.14-.88-.14a7.57,7.57,0,0,0,.72.53.2.2,0,0,0,.28-.12Z"/><path class="cls-4" d="M15.17,6.67a.18.18,0,0,0-.06-.29,7.83,7.83,0,0,0-.83-.31,7.59,7.59,0,0,0,.6.65.18.18,0,0,0,.29,0Z"/><path class="cls-4" d="M15.53,6.23a.19.19,0,0,0,0-.29,7.34,7.34,0,0,0-.76-.47,6.41,6.41,0,0,0,.47.76.18.18,0,0,0,.29,0Z"/><path class="cls-4" d="M17.56,5.74A2.53,2.53,0,1,1,15,8.27a2.53,2.53,0,0,1,2.53-2.53Z"/><path class="cls-4" d="M17.56,5.39a.19.19,0,0,0,.21-.21,7.48,7.48,0,0,0-.21-.87,7.79,7.79,0,0,0-.2.87.19.19,0,0,0,.2.21Z"/><path class="cls-4" d="M18.13,11.09a.19.19,0,0,0-.17.25,7.83,7.83,0,0,0,.38.8,7.43,7.43,0,0,0,0-.89.19.19,0,0,0-.24-.16Z"/><path class="cls-4" d="M17.56,11.14a.19.19,0,0,0-.2.21,7.79,7.79,0,0,0,.2.87,7.48,7.48,0,0,0,.21-.87.19.19,0,0,0-.21-.21Z"/><path class="cls-4" d="M17,11.09a.19.19,0,0,0-.24.16,7.43,7.43,0,0,0,0,.89,8.1,8.1,0,0,0,.37-.8.18.18,0,0,0-.16-.25Z"/><path class="cls-4" d="M16.46,10.93a.19.19,0,0,0-.27.11,7,7,0,0,0-.14.88,7.57,7.57,0,0,0,.53-.72.19.19,0,0,0-.12-.27Z"/><path class="cls-4" d="M16,5.88a.19.19,0,0,0,0-.29A6.52,6.52,0,0,0,15.37,5a6.1,6.1,0,0,0,.31.83.19.19,0,0,0,.29.07Z"/><path class="cls-4" d="M16.46,5.61a.19.19,0,0,0,.12-.27,7.93,7.93,0,0,0-.53-.73,6.73,6.73,0,0,0,.14.88.19.19,0,0,0,.27.12Z"/><path class="cls-4" d="M17,5.44a.18.18,0,0,0,.16-.24,7.43,7.43,0,0,0-.37-.81,7.43,7.43,0,0,0,0,.89.18.18,0,0,0,.24.16Z"/></g></g></g></g></g></svg>