<svg width="23" height="25" viewBox="0 0 23 25" fill="none" xmlns="http://www.w3.org/2000/svg">
<path d="M16.2915 2.30796C17.5612 2.312 18.7779 2.85022 19.6758 3.80509C20.5736 4.75996 21.0797 6.05387 21.0835 7.40425V17.5957C21.0797 18.9461 20.5736 20.24 19.6758 21.1949C18.7779 22.1498 17.5612 22.688 16.2915 22.692H6.7085C5.43875 22.688 4.22209 22.1498 3.32423 21.1949C2.42638 20.24 1.92029 18.9461 1.9165 17.5957V7.40425C1.92029 6.05387 2.42638 4.75996 3.32423 3.80509C4.22209 2.85022 5.43875 2.312 6.7085 2.30796H16.2915ZM16.2915 0.269775H6.7085C3.01875 0.269775 0 3.48021 0 7.40425V17.5957C0 21.5198 3.01875 24.7302 6.7085 24.7302H16.2915C19.9813 24.7302 23 21.5198 23 17.5957V7.40425C23 3.48021 19.9813 0.269775 16.2915 0.269775Z" fill="#004885"/>
<path d="M18.5 7.71408C18.2033 7.71408 17.9133 7.62051 17.6666 7.44522C17.42 7.26992 17.2277 7.02077 17.1142 6.72926C17.0006 6.43775 16.9709 6.11699 17.0288 5.80753C17.0867 5.49806 17.2296 5.21381 17.4393 4.9907C17.6491 4.76759 17.9164 4.61565 18.2074 4.55409C18.4983 4.49254 18.7999 4.52413 19.074 4.64487C19.3481 4.76562 19.5824 4.9701 19.7472 5.23245C19.912 5.49479 20 5.80323 20 6.11876C20.0004 6.32838 19.9619 6.53604 19.8867 6.72979C19.8114 6.92355 19.701 7.0996 19.5616 7.24782C19.4222 7.39605 19.2567 7.51355 19.0745 7.59356C18.8923 7.67357 18.6971 7.71453 18.5 7.71408Z" fill="#004885"/>
<path d="M12 8.6007C12.7912 8.6007 13.5646 8.82941 14.2224 9.25792C14.8802 9.68642 15.3929 10.2955 15.6957 11.008C15.9984 11.7206 16.0777 12.5047 15.9233 13.2612C15.769 14.0176 15.388 14.7125 14.8286 15.2579C14.2691 15.8033 13.5564 16.1747 12.7804 16.3251C12.0044 16.4756 11.2001 16.3984 10.4692 16.1032C9.73826 15.8081 9.11352 15.3082 8.67398 14.6669C8.23443 14.0256 7.99982 13.2717 7.99982 12.5004C8.00096 11.4665 8.42277 10.4752 9.1727 9.74411C9.92263 9.01302 10.9394 8.60181 12 8.6007ZM12 6.65112C10.8133 6.65112 9.65328 6.99418 8.66658 7.6369C7.67989 8.27963 6.91085 9.19316 6.45673 10.262C6.0026 11.3308 5.88378 12.5069 6.11529 13.6415C6.3468 14.7762 6.91825 15.8184 7.75736 16.6364C8.59648 17.4545 9.66557 18.0116 10.8295 18.2373C11.9933 18.4629 13.1997 18.3471 14.2961 17.9044C15.3925 17.4617 16.3295 16.712 16.9888 15.7501C17.6481 14.7882 18 13.6573 18 12.5004C18 10.9491 17.3679 9.46128 16.2426 8.36433C15.1174 7.26738 13.5913 6.65112 12 6.65112Z" fill="#004885"/>
<path d="M16.2915 2.30796C17.5612 2.312 18.7779 2.85022 19.6758 3.80509C20.5736 4.75996 21.0797 6.05387 21.0835 7.40425V17.5957C21.0797 18.9461 20.5736 20.24 19.6758 21.1949C18.7779 22.1498 17.5612 22.688 16.2915 22.692H6.7085C5.43875 22.688 4.22209 22.1498 3.32423 21.1949C2.42638 20.24 1.92029 18.9461 1.9165 17.5957V7.40425C1.92029 6.05387 2.42638 4.75996 3.32423 3.80509C4.22209 2.85022 5.43875 2.312 6.7085 2.30796H16.2915ZM16.2915 0.269775H6.7085C3.01875 0.269775 0 3.48021 0 7.40425V17.5957C0 21.5198 3.01875 24.7302 6.7085 24.7302H16.2915C19.9813 24.7302 23 21.5198 23 17.5957V7.40425C23 3.48021 19.9813 0.269775 16.2915 0.269775Z" fill="#004885"/>
<path d="M18.5 7.71408C18.2033 7.71408 17.9133 7.62051 17.6666 7.44522C17.42 7.26992 17.2277 7.02077 17.1142 6.72926C17.0006 6.43775 16.9709 6.11699 17.0288 5.80753C17.0867 5.49806 17.2296 5.21381 17.4393 4.9907C17.6491 4.76759 17.9164 4.61565 18.2074 4.55409C18.4983 4.49254 18.7999 4.52413 19.074 4.64487C19.3481 4.76562 19.5824 4.9701 19.7472 5.23245C19.912 5.49479 20 5.80323 20 6.11876C20.0004 6.32838 19.9619 6.53604 19.8867 6.72979C19.8114 6.92355 19.701 7.0996 19.5616 7.24782C19.4222 7.39605 19.2567 7.51355 19.0745 7.59356C18.8923 7.67357 18.6971 7.71453 18.5 7.71408Z" fill="#004885"/>
<path d="M12 8.6007C12.7912 8.6007 13.5646 8.82941 14.2224 9.25792C14.8802 9.68642 15.3929 10.2955 15.6957 11.008C15.9984 11.7206 16.0777 12.5047 15.9233 13.2612C15.769 14.0176 15.388 14.7125 14.8286 15.2579C14.2691 15.8033 13.5564 16.1747 12.7804 16.3251C12.0044 16.4756 11.2001 16.3984 10.4692 16.1032C9.73826 15.8081 9.11352 15.3082 8.67398 14.6669C8.23443 14.0256 7.99982 13.2717 7.99982 12.5004C8.00096 11.4665 8.42277 10.4752 9.1727 9.74411C9.92263 9.01302 10.9394 8.60181 12 8.6007ZM12 6.65112C10.8133 6.65112 9.65328 6.99418 8.66658 7.6369C7.67989 8.27963 6.91085 9.19316 6.45673 10.262C6.0026 11.3308 5.88378 12.5069 6.11529 13.6415C6.3468 14.7762 6.91825 15.8184 7.75736 16.6364C8.59648 17.4545 9.66557 18.0116 10.8295 18.2373C11.9933 18.4629 13.1997 18.3471 14.2961 17.9044C15.3925 17.4617 16.3295 16.712 16.9888 15.7501C17.6481 14.7882 18 13.6573 18 12.5004C18 10.9491 17.3679 9.46128 16.2426 8.36433C15.1174 7.26738 13.5913 6.65112 12 6.65112Z" fill="#004885"/>
</svg>
