<svg xmlns="http://www.w3.org/2000/svg" viewBox="0 0 72.08 105.68"><defs><style>.cls-1{fill:#ccc;}</style></defs><title>Ресурс 6</title><g id="Слой_2" data-name="Слой 2"><g id="Слой_1_копия3_" data-name="Слой 1 (копия3)"><g id="journal"><path class="cls-1" d="M70.08,105.68H2a2,2,0,0,1-2-2V10.81a2,2,0,0,1,2-2H70.08a2,2,0,0,1,2,2v92.87A2,2,0,0,1,70.08,105.68ZM4,101.68H68.08V12.81H4Z"/><rect class="cls-1" x="9.45" y="19.41" width="20.72" height="5"/><path class="cls-1" d="M58.39,23.41V34.88H39.3V23.41H58.39m4-4H35.3V38.88H62.39V19.41Z"/><rect class="cls-1" x="9.45" y="28.38" width="14.67" height="5"/><rect class="cls-1" x="9.45" y="47.58" width="52.94" height="5"/><rect class="cls-1" x="9.45" y="56.43" width="52.94" height="5"/><rect class="cls-1" x="9.45" y="65.27" width="52.94" height="5"/><rect class="cls-1" x="9.45" y="74.11" width="36.13" height="5"/><path class="cls-1" d="M62.1,0a2,2,0,0,1,1.6.47A2,2,0,0,1,64.39,2V5a2,2,0,1,1-4,0V4.31L2.29,12.79l-.29,0a2,2,0,0,1-.29-4"/></g></g></g></svg>