<svg width="17" height="17" viewBox="0 0 17 17" fill="none" xmlns="http://www.w3.org/2000/svg">
<path d="M6.98195 1C5.79883 1 4.64228 1.35084 3.65856 2.00814C2.67483 2.66544 1.90811 3.5997 1.45535 4.69275C1.00259 5.78581 0.884129 6.98858 1.11494 8.14897C1.34576 9.30935 1.91548 10.3752 2.75207 11.2118C3.58866 12.0484 4.65454 12.6181 5.81493 12.8489C6.97531 13.0798 8.17808 12.9613 9.27114 12.5085C10.3642 12.0558 11.2984 11.2891 11.9558 10.3053C12.6131 9.32161 12.9639 8.16506 12.9639 6.98195C12.9638 5.39547 12.3335 3.87399 11.2117 2.75218C10.0899 1.63037 8.56843 1.0001 6.98195 1V1Z" stroke="#BDBDBD" stroke-width="1.5" stroke-miterlimit="10"/>
<path d="M11.4449 11.4449L15.6226 15.6226" stroke="#BDBDBD" stroke-width="1.5" stroke-miterlimit="10" stroke-linecap="round"/>
</svg>
