<svg width="24" height="21" viewBox="0 0 24 21" fill="none" xmlns="http://www.w3.org/2000/svg">
<path d="M24 2.86979C23.0997 3.27727 22.1472 3.54572 21.1725 3.66667C22.1968 3.04187 22.9672 2.04926 23.339 0.875007C22.3705 1.4649 21.3128 1.87879 20.211 2.09896C19.747 1.59247 19.1891 1.18954 18.571 0.914666C17.9529 0.639793 17.2876 0.498715 16.6155 0.500009C13.8945 0.500009 11.6925 2.76042 11.6925 5.54687C11.6906 5.93445 11.7332 6.32088 11.8195 6.69791C9.86834 6.60263 7.95776 6.08415 6.20999 5.17565C4.46222 4.26715 2.91574 2.98863 1.6695 1.42188C1.23229 2.18965 1.00107 3.06565 1 3.95833C1 5.70833 1.8765 7.2552 3.2 8.16144C2.41586 8.14206 1.6478 7.92587 0.961 7.53124V7.59374C0.961 10.0416 2.661 12.0781 4.911 12.5416C4.48789 12.6591 4.05188 12.7187 3.614 12.7187C3.30329 12.7193 2.99328 12.6879 2.6885 12.625C3.314 14.6302 5.1345 16.0885 7.291 16.1302C5.53869 17.5369 3.38731 18.2972 1.175 18.2916C0.782309 18.291 0.389983 18.2667 0 18.2187C2.25059 19.7157 4.86672 20.5075 7.537 20.4999C16.605 20.4999 21.559 12.8073 21.559 6.13541C21.559 5.91666 21.5535 5.69791 21.5435 5.48437C22.505 4.7719 23.3369 3.88651 24 2.86979Z" fill="#004885"/>
</svg>
