<svg width="24" height="17" viewBox="0 0 24 17" fill="none" xmlns="http://www.w3.org/2000/svg">
<path fill-rule="evenodd" clip-rule="evenodd" d="M23.435 1.61111C23.613 0.984444 23.435 0.528889 22.6475 0.528889H20.029C19.3685 0.528889 19.0635 0.927778 18.8855 1.35444C18.8855 1.35444 17.5385 4.99889 15.6575 7.36167C15.0475 8.045 14.768 8.27278 14.4375 8.27278C14.2595 8.27278 14.0305 8.045 14.0305 7.41889V1.58167C14.0305 0.841667 13.8275 0.5 13.268 0.5H9.15001C8.74301 0.5 8.48901 0.841667 8.48901 1.18333C8.48901 1.895 9.42951 2.06611 9.53101 4.05889V8.38889C9.53101 9.32833 9.38101 9.5 9.04801 9.5C8.15851 9.5 5.99801 5.82722 4.70201 1.64222C4.45001 0.813333 4.19401 0.5 3.533 0.5H0.889501C0.127 0.5 0 0.898333 0 1.32556C0 2.09444 0.889501 5.96611 4.14301 11.0906C6.30351 14.5906 9.37901 16.4717 12.1495 16.4717C13.8275 16.4717 14.0305 16.0444 14.0305 15.3328V12.685C14.0305 11.8311 14.183 11.6889 14.717 11.6889C15.098 11.6889 15.7845 11.9161 17.335 13.5961C19.114 15.5889 19.419 16.5 20.4105 16.5H23.0285C23.791 16.5 24.147 16.0728 23.9435 15.2472C23.715 14.4217 22.8505 13.2261 21.732 11.8028C21.122 11.0061 20.207 10.1233 19.9275 9.69611C19.5465 9.12667 19.648 8.89889 19.9275 8.38667C19.902 8.38667 23.105 3.31889 23.435 1.60889" fill="#004885"/>
</svg>
