<svg xmlns="http://www.w3.org/2000/svg" xmlns:xlink="http://www.w3.org/1999/xlink" viewBox="0 0 33.56 19.58"><defs><style>.cls-1{fill:none;}.cls-2{clip-path:url(#clip-path);}.cls-3{fill:#58b44d;}.cls-4{fill:#fff;}.cls-5{fill:#ea0042;}.cls-6{fill:#cfb428;}</style><clipPath id="clip-path"><rect class="cls-1" width="33.56" height="19.58"/></clipPath></defs><title>Ресурс 4</title><g id="Слой_2" data-name="Слой 2"><g id="_4" data-name="4"><g id="TAJIKISTAN"><g class="cls-2"><rect class="cls-3" y="13.99" width="33.56" height="5.59"/><rect class="cls-4" y="5.59" width="33.56" height="8.4"/><rect class="cls-5" width="33.56" height="5.59"/><g class="cls-2"><path class="cls-6" d="M16.76,11.78a1.16,1.16,0,0,0,1.26.15.89.89,0,0,0,1.27.21A1.71,1.71,0,0,1,18,11.39a.9.9,0,0,1-1-.1V9.7l.81-.8a1.16,1.16,0,0,0-2.09,0l.81.8v1.59a.9.9,0,0,1-1,.1,1.71,1.71,0,0,1-1.29.75.88.88,0,0,0,1.27-.21,1.16,1.16,0,0,0,1.26-.15Zm0-2.35A1.13,1.13,0,0,0,16.14,9a.73.73,0,0,1,1.23,0,1.17,1.17,0,0,0-.62.48"/><path class="cls-6" d="M16.76,12.6a1.91,1.91,0,0,0-1.47.54l-.21-.23c.19-.23.44-.31.51-.6a.41.41,0,0,0-.08-.36.9.9,0,0,0,.73.29c.32,0,.52-.36.52-.36m0,0s.19.36.51.36A.9.9,0,0,0,18,12a.41.41,0,0,0-.08.36c.07.29.32.37.51.6l-.21.23a1.9,1.9,0,0,0-1.46-.54"/><polygon class="cls-6" points="20.35 10.01 20.49 10.44 20.95 10.44 20.58 10.71 20.72 11.15 20.35 10.88 19.98 11.15 20.12 10.71 19.75 10.44 20.21 10.44 20.35 10.01"/><polygon class="cls-6" points="19.87 8.23 20.01 8.66 20.47 8.66 20.1 8.93 20.24 9.36 19.87 9.09 19.5 9.36 19.64 8.93 19.27 8.66 19.73 8.66 19.87 8.23"/><polygon class="cls-6" points="18.57 6.92 18.71 7.35 19.16 7.35 18.8 7.63 18.94 8.05 18.57 7.79 18.2 8.05 18.34 7.63 17.96 7.35 18.42 7.35 18.57 6.92"/><polygon class="cls-6" points="16.78 6.44 16.92 6.88 17.38 6.88 17.01 7.14 17.15 7.58 16.78 7.31 16.41 7.58 16.55 7.14 16.18 6.88 16.64 6.88 16.78 6.44"/><polygon class="cls-6" points="15 6.92 15.14 7.35 15.6 7.35 15.22 7.63 15.37 8.05 15 7.79 14.63 8.05 14.77 7.63 14.4 7.35 14.86 7.35 15 6.92"/><polygon class="cls-6" points="13.69 8.23 13.83 8.66 14.29 8.66 13.92 8.93 14.06 9.36 13.69 9.09 13.32 9.36 13.46 8.93 13.09 8.66 13.55 8.66 13.69 8.23"/><polygon class="cls-6" points="13.21 10.01 13.35 10.44 13.81 10.44 13.44 10.71 13.58 11.15 13.21 10.88 12.84 11.15 12.98 10.71 12.61 10.44 13.07 10.44 13.21 10.01"/></g></g></g></g></g></svg>