<svg width="18" height="18" viewBox="0 0 18 18" fill="none" xmlns="http://www.w3.org/2000/svg">
<path d="M8.53125 0C3.82717 0 0 4.00941 0 8.9375C0 13.8656 3.82717 17.875 8.53125 17.875C13.2353 17.875 17.0625 13.8656 17.0625 8.9375C17.0625 4.00941 13.2353 0 8.53125 0ZM11.6201 11.2015C11.6836 11.2647 11.7344 11.3406 11.7695 11.4247C11.8046 11.5088 11.8232 11.5994 11.8243 11.6911C11.8254 11.7829 11.809 11.874 11.776 11.959C11.743 12.044 11.6941 12.1212 11.6322 12.1861C11.5702 12.251 11.4965 12.3022 11.4154 12.3368C11.3342 12.3714 11.2473 12.3886 11.1597 12.3874C11.0721 12.3862 10.9857 12.3667 10.9054 12.3299C10.8251 12.2932 10.7527 12.24 10.6924 12.1735L8.53125 9.90988L6.37014 12.1735C6.24606 12.297 6.08085 12.3648 5.90973 12.3625C5.7386 12.3602 5.57511 12.288 5.45409 12.1612C5.33308 12.0344 5.26413 11.8631 5.26193 11.6839C5.25974 11.5046 5.32449 11.3315 5.44236 11.2015L7.60307 8.9375L5.44236 6.67348C5.32449 6.5435 5.25974 6.37042 5.26193 6.19114C5.26413 6.01187 5.33308 5.84059 5.45409 5.71381C5.57511 5.58703 5.7386 5.5148 5.90973 5.5125C6.08085 5.51021 6.24606 5.57803 6.37014 5.70152L8.53125 7.96512L10.6924 5.70152C10.8164 5.57803 10.9816 5.51021 11.1528 5.5125C11.3239 5.5148 11.4874 5.58703 11.6084 5.71381C11.7294 5.84059 11.7984 6.01187 11.8006 6.19114C11.8028 6.37042 11.738 6.5435 11.6201 6.67348L9.45943 8.9375L11.6201 11.2015Z" fill="#F05454"/>
</svg>
