<svg xmlns="http://www.w3.org/2000/svg" viewBox="0 0 75.46 96.87"><defs><style>.cls-1{fill:#ccc;}</style></defs><title>Ресурс 8</title><g id="Слой_2" data-name="Слой 2"><g id="Слой_1_копия3_" data-name="Слой 1 (копия3)"><rect class="cls-1" x="8.11" y="92.87" width="59.24" height="4"/><path class="cls-1" d="M16.22,79.91h-4V2a2,2,0,0,1,2-2H73.46a2,2,0,0,1,2,2V38.35h-4V4H16.22Z"/><path class="cls-1" d="M8.11,96.87C2.16,96.87,0,92,0,88.68V38.35a2,2,0,0,1,2-2H14.22a2,2,0,0,1,2,2V88.68C16.22,92,14.06,96.87,8.11,96.87ZM4,40.35V88.68a3.91,3.91,0,0,0,4.11,4.19c4,0,4.11-3.76,4.11-4.19V40.35Z"/><path class="cls-1" d="M67.35,96.87v-4c4,0,4.11-3.76,4.11-4.19V38.35h4V88.68C75.46,92,73.3,96.87,67.35,96.87Z"/><rect class="cls-1" x="21.02" y="36.86" width="46.32" height="5"/><rect class="cls-1" x="21.02" y="46.9" width="46.32" height="5"/><rect class="cls-1" x="21.02" y="56.95" width="46.32" height="5"/><rect class="cls-1" x="21.02" y="67" width="28.75" height="5"/><path class="cls-1" d="M27.94,23.74l-3.23-6.82v6.82H21.76V11.49h3.53l3.23,6.81V11.49h2.93V23.74Z"/><path class="cls-1" d="M31.08,11.86v11.5h-2.9L24.23,15h-.12a9,9,0,0,1,.22,2v6.28h-2.2V11.86h2.92L29,20.11h.1a10.18,10.18,0,0,1-.17-2V11.86h2.19m.75-.75H28.14v5.52l-2.41-5.09-.21-.43H21.38v13h3.7V18.59l2.42,5.1.2.42h4.13v-13Z"/><polygon class="cls-1" points="34.33 23.74 34.33 11.48 40.84 11.48 40.84 14.08 37.46 14.08 37.46 16.07 40.59 16.07 40.59 18.68 37.46 18.68 37.46 21.12 40.84 21.12 40.84 23.74 34.33 23.74"/><path class="cls-1" d="M40.46,11.86v1.85H37.08v2.74h3.14V18.3H37.08v3.19h3.38v1.87H34.71V11.86h5.75m.75-.75H34v13h7.25V20.74H37.83V19.05H41V15.7H37.83V14.46h3.38V11.11Z"/><path class="cls-1" d="M52,23.74,50.7,17.41l-.06-.26,0,.27-1.28,6.32H45.74L43.27,11.49h3.11l1.2,6.8c0,.1,0,.22.05.35,0-.12,0-.22.07-.32l1.42-6.83h3.07l1.43,6.83c0,.13,0,.25.07.38,0-.17,1.23-7.21,1.23-7.21H58L55.59,23.74Z"/><path class="cls-1" d="M57.58,11.86l-2.29,11.5h-3l-1.25-6a19.35,19.35,0,0,1-.41-2.92l-.07.58-.36,2.37-1.22,6H46l-2.31-11.5h2.33l1.15,6.49c.11.65.26,1.67.44,3.06.15-1.4.28-2.41.41-3l1.37-6.54h2.46l1.36,6.54c.18,1,.32,2,.43,3,.2-1.55.35-2.58.44-3.08l1.11-6.49h2.35m.92-.75H54.6l-.11.62-.84,4.93-1-4.95-.12-.6H48.82l-.13.6-1,4.92-.86-4.9-.11-.62H42.81L43,12l2.32,11.5.12.6h4.2l.12-.6L50.66,19l.92,4.48.13.59H55.9l.12-.6L58.32,12l.18-.9Z"/><path class="cls-1" d="M62.73,23.9a6.76,6.76,0,0,1-3-.63l-.2-.11v-3l.56.33a4.87,4.87,0,0,0,2.44.79,1.06,1.06,0,0,0,.76-.23.85.85,0,0,0,.24-.65,1.24,1.24,0,0,0-.32-.81,5.54,5.54,0,0,0-1.27-1,6.55,6.55,0,0,1-1.33-1.05,3.76,3.76,0,0,1-.72-1.16,4.08,4.08,0,0,1-.26-1.49,3.47,3.47,0,0,1,1-2.62,3.81,3.81,0,0,1,2.71-1,6.12,6.12,0,0,1,3,.79l.31.16-1.1,2.4-.35-.19a7.91,7.91,0,0,0-.84-.37,2.34,2.34,0,0,0-.85-.15.79.79,0,0,0-.61.22,1,1,0,0,0-.21.68,1.13,1.13,0,0,0,.28.77,5.19,5.19,0,0,0,1.21.9,5.68,5.68,0,0,1,1.87,1.67,3.72,3.72,0,0,1,.55,2,3.67,3.67,0,0,1-1,2.75A4.08,4.08,0,0,1,62.73,23.9Z"/><path class="cls-1" d="M63.36,11.69a5.82,5.82,0,0,1,2.82.74l-.79,1.72a6.79,6.79,0,0,0-.87-.39,2.72,2.72,0,0,0-1-.18,1.12,1.12,0,0,0-.88.35,1.29,1.29,0,0,0-.31.93,1.47,1.47,0,0,0,.37,1,5.34,5.34,0,0,0,1.29,1,5,5,0,0,1,1.75,1.54,3.27,3.27,0,0,1,.49,1.79,3.24,3.24,0,0,1-.9,2.47,3.62,3.62,0,0,1-2.61.86,6.18,6.18,0,0,1-2.84-.59V20.81a5.22,5.22,0,0,0,2.63.85,1.45,1.45,0,0,0,1-.34,1.23,1.23,0,0,0,.34-.92,1.58,1.58,0,0,0-.41-1,5.78,5.78,0,0,0-1.35-1.06,5.84,5.84,0,0,1-1.25-1,3.36,3.36,0,0,1-.65-1A3.54,3.54,0,0,1,60,14.91a3.08,3.08,0,0,1,.91-2.35,3.4,3.4,0,0,1,2.45-.87m0-.75a4.17,4.17,0,0,0-3,1.08,3.8,3.8,0,0,0-1.14,2.89,4.42,4.42,0,0,0,.28,1.63,4,4,0,0,0,.8,1.27,6.39,6.39,0,0,0,1.4,1.12,4.93,4.93,0,0,1,1.18.91.81.81,0,0,1,.23.56c0,.27-.09.35-.12.38a.75.75,0,0,1-.5.13,4.57,4.57,0,0,1-2.25-.74l-1.13-.67v3.89l.41.21a6.94,6.94,0,0,0,3.18.67,4.38,4.38,0,0,0,3.12-1.06,4,4,0,0,0,1.14-3A4,4,0,0,0,66.38,18a5.81,5.81,0,0,0-2-1.79,4.56,4.56,0,0,1-1.11-.82.78.78,0,0,1-.19-.53.67.67,0,0,1,.11-.43s.09-.1.33-.1a1.88,1.88,0,0,1,.72.13,7.17,7.17,0,0,1,.8.35l.7.37.33-.72.78-1.71.29-.64-.61-.33a6.49,6.49,0,0,0-3.18-.84Z"/></g></g></svg>