<svg xmlns="http://www.w3.org/2000/svg" viewBox="0 0 73.92 104.33"><defs><style>.cls-1{fill:#ccc;}</style></defs><title>Ресурс 4</title><g id="Слой_2" data-name="Слой 2"><g id="Слой_1_копия3_" data-name="Слой 1 (копия3)"><g id="piblication"><path class="cls-1" d="M71.92,96.87H59.6v-4H69.92V4H21.05L4,21.83v71H50.69v4H2a2,2,0,0,1-2-2V21a2,2,0,0,1,.55-1.39l18.2-19A2,2,0,0,1,20.2,0H71.92a2,2,0,0,1,2,2V94.87A2,2,0,0,1,71.92,96.87Z"/><path class="cls-1" d="M60.23,104.33a1.52,1.52,0,0,1-.8-.23L55,101.3l-4.38,2.8a1.5,1.5,0,0,1-2.31-1.27V87.1h3v13l2.89-1.84a1.47,1.47,0,0,1,1.61,0l2.88,1.84v-13h3v15.73a1.49,1.49,0,0,1-1.5,1.5Z"/><path class="cls-1" d="M51.32,91.24a1.45,1.45,0,0,1-.55-.1,1.51,1.51,0,0,1-.89-1c-.74-2.5-1.85-3.57-4.56-4.38a1.55,1.55,0,0,1-1-.84,1.52,1.52,0,0,1,0-1.27c1.26-2.54,1.24-4.07-.08-6.32a1.5,1.5,0,0,1,.87-2.2c2.5-.74,3.57-1.84,4.38-4.56a1.51,1.51,0,0,1,.84-.94,1.49,1.49,0,0,1,1.27,0c2.53,1.26,4.07,1.25,6.32-.07a1.49,1.49,0,0,1,2.2.86c.73,2.5,1.84,3.57,4.56,4.39a1.46,1.46,0,0,1,.94.84,1.5,1.5,0,0,1,0,1.26c-1.26,2.54-1.25,4.07.07,6.32a1.5,1.5,0,0,1-.87,2.2c-2.5.74-3.56,1.84-4.38,4.56a1.5,1.5,0,0,1-2.1.91c-2.54-1.26-4.08-1.24-6.32.08A1.6,1.6,0,0,1,51.32,91.24Zm-3.56-7.76a8,8,0,0,1,4.38,4.18,8,8,0,0,1,6.06,0,8,8,0,0,1,4.18-4.38,8,8,0,0,1-.05-6.06A8,8,0,0,1,57.94,73a8,8,0,0,1-6,.05,8,8,0,0,1-4.18,4.38A8,8,0,0,1,47.76,83.48Z"/><path class="cls-1" d="M22.7,24.46H.34v-4H20.7V.1h4V22.46A2,2,0,0,1,22.7,24.46Z"/><rect class="cls-1" x="30.17" y="8.78" width="34.22" height="5"/><rect class="cls-1" x="30.17" y="17.07" width="25.25" height="5"/><rect class="cls-1" x="9.53" y="34.85" width="54.85" height="5"/><rect class="cls-1" x="9.53" y="45.64" width="44.29" height="5"/><rect class="cls-1" x="9.53" y="56.44" width="35.57" height="5"/></g></g></g></svg>