<svg width="36" height="36" viewBox="0 0 36 36" fill="none" xmlns="http://www.w3.org/2000/svg">
<path d="M0 18C0 8.05887 8.05887 0 18 0C27.9411 0 36 8.05887 36 18C36 27.9411 27.9411 36 18 36C8.05887 36 0 27.9411 0 18Z" fill="#FF0000"/>
<path d="M27.1992 13.5549C26.9784 12.7067 26.3277 12.0387 25.5016 11.812C24.0044 11.4 18.0004 11.4 18.0004 11.4C18.0004 11.4 11.9964 11.4 10.4991 11.812C9.67294 12.0387 9.02232 12.7067 8.80152 13.5549C8.40039 15.0923 8.40039 18.3 8.40039 18.3C8.40039 18.3 8.40039 21.5076 8.80152 23.0451C9.02232 23.8933 9.67294 24.5613 10.4991 24.7881C11.9964 25.2 18.0004 25.2 18.0004 25.2C18.0004 25.2 24.0044 25.2 25.5016 24.7881C26.3277 24.5613 26.9784 23.8933 27.1992 23.0451C27.6004 21.5076 27.6004 18.3 27.6004 18.3C27.6004 18.3 27.6004 15.0923 27.1992 13.5549Z" fill="white"/>
<path d="M16.2002 21.6V15.6L21.0002 18.6001L16.2002 21.6Z" fill="#FF0000"/>
</svg>
